<svg xmlns="http://www.w3.org/2000/svg" xmlns:xlink="http://www.w3.org/1999/xlink" width="177" height="177" viewBox="0 0 177 177"><defs><filter id="a" x="0" y="0" width="177" height="177" filterUnits="userSpaceOnUse"><feOffset dy="5" input="SourceAlpha"/><feGaussianBlur stdDeviation="12.5" result="b"/><feFlood flood-opacity="0.161"/><feComposite operator="in" in2="b"/><feComposite in="SourceGraphic"/></filter><clipPath id="c"><rect width="58" height="57" transform="translate(-0.417 0.159)" fill="#fff"/></clipPath></defs><g transform="translate(-2059.5 -3369.894)"><g transform="matrix(1, 0, 0, 1, 2059.5, 3369.89)" filter="url(#a)"><circle cx="51" cy="51" r="51" transform="translate(37.5 32.5)" fill="#00278b"/></g><g transform="translate(2119.417 3426.235)"><g transform="translate(0 0)" clip-path="url(#c)"><path d="M0,26.3C0,40.8,12.87,52.6,28.689,52.6a30.822,30.822,0,0,0,10.773-1.931L50.8,57.218A1.2,1.2,0,0,0,52.6,56.183V40.821A24.565,24.565,0,0,0,57.378,26.3C57.378,11.8,44.509,0,28.689,0S0,11.8,0,26.3m38.252,0a2.391,2.391,0,1,1,2.391,2.391A2.391,2.391,0,0,1,38.252,26.3M26.3,26.3a2.391,2.391,0,1,1,2.391,2.391A2.391,2.391,0,0,1,26.3,26.3m-11.954,0a2.391,2.391,0,1,1,2.391,2.391A2.391,2.391,0,0,1,14.345,26.3" transform="translate(0.09 -0.06)" fill="#fff"/></g></g></g></svg>